#!OML:ASF F:\VICON\USERDATA\INSTALL\rory3\rory3.ASF
:FULLY-SPECIFIED
:DEGREES
36
root -2.57342 17.7401 34.8792 -178.202 0.642648 173.853
lowerback 20.6187 -1.95162 -5.46681
upperback 2.36167 -2.99206 3.17955
thorax -8.46996 -0.986014 7.41943
lowerneck -10.1612 -0.686273 -0.85024
upperneck 20.5367 1.34226 -5.57994
head 8.06777 0.391088 -1.52606
rclavicle 1.19271e-014 -4.77083e-015
rhumerus -27.1757 -6.67422 -65.3068
rradius 96.539
rwrist 32.6725
rhand -22.7472 12.894
rfingers 7.12502
rthumb 3.68722 -17.0539
lclavicle 1.19271e-014 -4.77083e-015
lhumerus -34.2185 -0.941897 82.6488
lradius 46.8169
lwrist 9.72467
lhand -11.9731 52.5474
lfingers 7.12502
lthumb 14.0829 82.0502
rfemur -38.0316 -3.1162 17.1707
rtibia 33.4581
rfoot -6.42021 -14.334
rtoes 16.8583
lfemur 3.806 -1.3206 -34.2441
ltibia 20.1594
lfoot -17.9602 5.34122
ltoes -11.556
37
root -2.57512 17.7306 34.7243 -178.121 0.2036 173.733
lowerback 20.5025 -2.02093 -5.43148
upperback 2.34377 -3.0815 3.11911
thorax -8.418 -1.03559 7.34757
lowerneck -10.247 -0.79346 -0.88032
upperneck 20.5969 1.15324 -5.37585
head 8.09662 0.313343 -1.47297
rclavicle -2.62396e-014 3.49861e-014
rhumerus -26.5711 -5.61304 -66.1613
rradius 93.8592
rwrist 34.028
rhand -23.5971 13.3818
rfingers 7.12502
rthumb 2.86647 -16.5786
lclavicle -2.62396e-014 3.49861e-014
lhumerus -33.443 -1.75048 82.9748
lradius 47.0741
lwrist 9.35045
lhand -11.9893 52.089
lfingers 7.12502
lthumb 14.0673 81.5929
rfemur -37.7161 -2.71569 16.7347
rtibia 31.0796
rfoot -6.90882 -14.9789
rtoes 15.7814
lfemur 4.91637 -1.35354 -34.3486
ltibia 19.0324
lfoot -17.4147 5.50863
ltoes -11.444
38
root -2.57872 17.7206 34.5628 -178.133 -0.190808 173.673
lowerback 20.4087 -1.41574 -5.03098
upperback 2.33188 -3.23911 3.05531
thorax -8.42216 -1.5543 7.14823
lowerneck -10.2743 -0.91733 -0.754386
upperneck 20.5398 0.91387 -5.25986
head 8.07463 0.215719 -1.47958
rclavicle 9.93923e-015 -3.97569e-014
rhumerus -26.004 -4.81194 -66.9376
rradius 91.0858
rwrist 35.0623
rhand -23.8887 13.5441
rfingers 7.12502
rthumb 2.58489 -16.42
lclavicle 9.93923e-015 -3.97569e-014
lhumerus -32.7201 -2.63831 83.3161
lradius 47.4982
lwrist 8.99747
lhand -11.8239 52.0858
lfingers 7.12502
lthumb 14.2267 81.5786
rfemur -37.3219 -2.1397 16.2626
rtibia 29.094
rfoot -7.90286 -15.691
rtoes 16.0518
lfemur 6.14181 -1.4623 -34.4161
ltibia 17.915
lfoot -17.1485 5.52052
ltoes -10.5173
39
root -2.57255 17.7094 34.4024 -178.075 -0.658015 173.511
lowerback 20.4658 -1.46479 -5.21023
upperback 2.03211 -3.304 3.07584
thorax -8.7628 -1.53594 7.31071
lowerneck -9.57335 -1.08903 -1.01102
upperneck 20.5026 0.687541 -5.0057
head 7.92805 0.139019 -1.36882
rclavicle 1.15295e-014 -1.90833e-014
rhumerus -26.048 -3.79382 -67.3944
rradius 88.3644
rwrist 35.7148
rhand -24.1647 13.659
rfingers 7.12502
rthumb 2.31826 -16.3082
lclavicle 1.15295e-014 -1.90833e-014
lhumerus -32.6242 -3.4176 83.7627
lradius 47.9964
lwrist 8.81171
lhand -11.2694 52.7972
lfingers 7.12502
lthumb 14.7609 82.2516
rfemur -37.0139 -1.28058 15.5382
rtibia 27.4592
rfoot -9.7199 -16.7289
rtoes 17.3698
lfemur 7.26503 -1.54584 -34.4899
ltibia 16.8176
lfoot -16.9094 5.0612
ltoes -9.83319
40
root -2.56339 17.6971 34.2383 -178.061 -1.17998 173.443
lowerback 20.5501 -1.42582 -5.21778
upperback 2.03498 -3.25602 3.09478
thorax -8.81147 -1.50985 7.33004
lowerneck -10.2222 -1.31124 -1.05404
upperneck 20.9106 0.39903 -4.88313
head 8.17601 -0.00598789 -1.3563
rclavicle -4.77083e-014 9.54166e-015
rhumerus -25.4388 -3.49096 -67.8476
rradius 85.3673
rwrist 35.9131
rhand -24.2091 13.7957
rfingers 7.12502
rthumb 2.27544 -16.172
lclavicle -4.77083e-014 9.54166e-015
lhumerus -31.7812 -4.26809 84.185
lradius 48.2865
lwrist 8.48483
lhand -10.8383 52.9609
lfingers 7.12502
lthumb 15.1763 82.3844
rfemur -36.7168 -0.290933 14.855
rtibia 26.204
rfoot -11.4841 -17.8735
rtoes 16.7963
lfemur 8.40883 -1.65049 -34.4414
ltibia 15.8346
lfoot -16.5552 4.72315
ltoes -9.94175
41
root -2.55687 17.6824 34.0671 -178.035 -1.76891 173.278
lowerback 20.4523 -1.46349 -5.35428
upperback 2.02224 -3.32262 3.1493
thorax -8.75069 -1.5366 7.48061
lowerneck -10.4877 -1.46654 -1.21892
upperneck 21.1276 0.211015 -4.74997
head 8.29438 -0.0996372 -1.30653
rclavicle 2.46493e-014 -4.45278e-014
rhumerus -24.6683 -3.26373 -68.2244
rradius 81.9353
rwrist 36.1454
rhand -24.0323 14.1325
rfingers 7.12502
rthumb 2.44615 -15.8332
lclavicle 2.46493e-014 -4.45278e-014
lhumerus -31.1021 -4.91712 84.6654
lradius 48.415
lwrist 8.2635
lhand -10.6802 52.6051
lfingers 7.12502
lthumb 15.3285 82.017
rfemur -36.4755 0.980246 13.9114
rtibia 25.3726
rfoot -13.1336 -19.4589
rtoes 14.2774
lfemur 9.50098 -1.77751 -34.4955
ltibia 15.0811
lfoot -16.1133 4.55093
ltoes -11.4527
